<mxfile host="Electron" agent="Mozilla/5.0 (Windows NT 10.0; Win64; x64) AppleWebKit/537.36 (KHTML, like Gecko) draw.io/26.2.2 Chrome/134.0.6998.178 Electron/35.1.2 Safari/537.36" version="26.2.2">
  <diagram name="ページ1" id="Do2R8YbBjsIG0Oqwl3gb">
    <mxGraphModel dx="2214" dy="1518" grid="1" gridSize="10" guides="1" tooltips="1" connect="1" arrows="1" fold="1" page="1" pageScale="1" pageWidth="827" pageHeight="1169" math="1" shadow="0">
      <root>
        <mxCell id="0" />
        <mxCell id="1" parent="0" />
        <mxCell id="dQL6wDx0h7eH1XYwRV4I-1" style="edgeStyle=orthogonalEdgeStyle;shape=connector;rounded=0;orthogonalLoop=1;jettySize=auto;html=1;exitX=0.5;exitY=1;exitDx=0;exitDy=0;exitPerimeter=0;entryX=0.5;entryY=0;entryDx=0;entryDy=0;strokeColor=default;align=center;verticalAlign=middle;fontFamily=Helvetica;fontSize=11;fontColor=default;labelBackgroundColor=default;endArrow=open;endFill=0;" edge="1" parent="1" source="dQL6wDx0h7eH1XYwRV4I-2" target="dQL6wDx0h7eH1XYwRV4I-4">
          <mxGeometry relative="1" as="geometry" />
        </mxCell>
        <mxCell id="dQL6wDx0h7eH1XYwRV4I-2" value="開始" style="strokeWidth=1;html=1;shape=mxgraph.flowchart.terminator;whiteSpace=wrap;fontFamily=Lucida Console;fontSize=12;" vertex="1" parent="1">
          <mxGeometry x="-1340" y="-30" width="40" height="20" as="geometry" />
        </mxCell>
        <mxCell id="dQL6wDx0h7eH1XYwRV4I-53" style="edgeStyle=orthogonalEdgeStyle;shape=connector;rounded=0;orthogonalLoop=1;jettySize=auto;html=1;exitX=0.5;exitY=1;exitDx=0;exitDy=0;entryX=0.5;entryY=0;entryDx=0;entryDy=0;strokeColor=default;align=center;verticalAlign=middle;fontFamily=Helvetica;fontSize=11;fontColor=default;labelBackgroundColor=default;endArrow=open;endFill=0;" edge="1" parent="1" source="dQL6wDx0h7eH1XYwRV4I-4" target="dQL6wDx0h7eH1XYwRV4I-45">
          <mxGeometry relative="1" as="geometry" />
        </mxCell>
        <mxCell id="dQL6wDx0h7eH1XYwRV4I-4" value="&lt;font face=&quot;Lucida Console&quot;&gt;&amp;nbsp; 定数&lt;/font&gt;&lt;div&gt;&lt;font face=&quot;Lucida Console&quot;&gt;&amp;nbsp; \(N\_MAX = 10\)&lt;/font&gt;&lt;div&gt;&lt;font face=&quot;Lucida Console&quot;&gt;&amp;nbsp; 整数型の変数&lt;br&gt;&lt;/font&gt;&lt;div&gt;&lt;font face=&quot;Lucida Console&quot;&gt;&amp;nbsp; \(n \leftarrow 1, a \leftarrow 1 \)&lt;/font&gt;&lt;/div&gt;&lt;/div&gt;&lt;/div&gt;" style="shape=hexagon;perimeter=hexagonPerimeter2;whiteSpace=wrap;html=1;fixedSize=1;align=left;size=10;fontSize=12;" vertex="1" parent="1">
          <mxGeometry x="-1380" width="120" height="60" as="geometry" />
        </mxCell>
        <mxCell id="dQL6wDx0h7eH1XYwRV4I-43" value="終了" style="strokeWidth=1;html=1;shape=mxgraph.flowchart.terminator;whiteSpace=wrap;fontFamily=Lucida Console;fontSize=12;" vertex="1" parent="1">
          <mxGeometry x="-1280" y="240" width="40" height="20" as="geometry" />
        </mxCell>
        <mxCell id="dQL6wDx0h7eH1XYwRV4I-52" style="edgeStyle=orthogonalEdgeStyle;shape=connector;rounded=0;orthogonalLoop=1;jettySize=auto;html=1;exitX=0.5;exitY=1;exitDx=0;exitDy=0;entryX=0.5;entryY=0;entryDx=0;entryDy=0;strokeColor=default;align=center;verticalAlign=middle;fontFamily=Helvetica;fontSize=11;fontColor=default;labelBackgroundColor=default;endArrow=open;endFill=0;" edge="1" parent="1" source="dQL6wDx0h7eH1XYwRV4I-45" target="dQL6wDx0h7eH1XYwRV4I-46">
          <mxGeometry relative="1" as="geometry" />
        </mxCell>
        <mxCell id="dQL6wDx0h7eH1XYwRV4I-45" value="\(n, a\) の&lt;div&gt;値&lt;span style=&quot;background-color: transparent; color: light-dark(rgb(0, 0, 0), rgb(255, 255, 255));&quot;&gt;を出力&lt;/span&gt;&lt;/div&gt;" style="shape=parallelogram;perimeter=parallelogramPerimeter;whiteSpace=wrap;html=1;fixedSize=1;size=10;" vertex="1" parent="1">
          <mxGeometry x="-1370" y="80" width="100" height="30" as="geometry" />
        </mxCell>
        <mxCell id="dQL6wDx0h7eH1XYwRV4I-51" style="edgeStyle=orthogonalEdgeStyle;shape=connector;rounded=0;orthogonalLoop=1;jettySize=auto;html=1;exitX=0.5;exitY=1;exitDx=0;exitDy=0;entryX=0.5;entryY=0;entryDx=0;entryDy=0;strokeColor=default;align=center;verticalAlign=middle;fontFamily=Helvetica;fontSize=11;fontColor=default;labelBackgroundColor=default;endArrow=open;endFill=0;" edge="1" parent="1" source="dQL6wDx0h7eH1XYwRV4I-46" target="dQL6wDx0h7eH1XYwRV4I-47">
          <mxGeometry relative="1" as="geometry" />
        </mxCell>
        <mxCell id="dQL6wDx0h7eH1XYwRV4I-46" value="\(a\leftarrow 2 a + 1\)" style="rounded=0;whiteSpace=wrap;html=1;fontFamily=Lucida Console;fontSize=12;" vertex="1" parent="1">
          <mxGeometry x="-1370" y="120" width="100" height="20" as="geometry" />
        </mxCell>
        <mxCell id="dQL6wDx0h7eH1XYwRV4I-50" style="edgeStyle=orthogonalEdgeStyle;shape=connector;rounded=0;orthogonalLoop=1;jettySize=auto;html=1;exitX=0.5;exitY=1;exitDx=0;exitDy=0;entryX=0.5;entryY=0;entryDx=0;entryDy=0;strokeColor=default;align=center;verticalAlign=middle;fontFamily=Helvetica;fontSize=11;fontColor=default;labelBackgroundColor=default;endArrow=open;endFill=0;" edge="1" parent="1" source="dQL6wDx0h7eH1XYwRV4I-47" target="dQL6wDx0h7eH1XYwRV4I-48">
          <mxGeometry relative="1" as="geometry" />
        </mxCell>
        <mxCell id="dQL6wDx0h7eH1XYwRV4I-47" value="\(n\leftarrow n + 1\)" style="rounded=0;whiteSpace=wrap;html=1;fontFamily=Lucida Console;fontSize=12;" vertex="1" parent="1">
          <mxGeometry x="-1370" y="150" width="100" height="20" as="geometry" />
        </mxCell>
        <mxCell id="dQL6wDx0h7eH1XYwRV4I-54" style="edgeStyle=orthogonalEdgeStyle;shape=connector;rounded=0;orthogonalLoop=1;jettySize=auto;html=1;exitX=0.5;exitY=1;exitDx=0;exitDy=0;strokeColor=default;align=center;verticalAlign=middle;fontFamily=Helvetica;fontSize=11;fontColor=default;labelBackgroundColor=default;endArrow=open;endFill=0;" edge="1" parent="1" source="dQL6wDx0h7eH1XYwRV4I-48">
          <mxGeometry relative="1" as="geometry">
            <mxPoint x="-1319.8431372549019" y="70" as="targetPoint" />
            <Array as="points">
              <mxPoint x="-1320" y="250" />
              <mxPoint x="-1390" y="250" />
              <mxPoint x="-1390" y="70" />
            </Array>
          </mxGeometry>
        </mxCell>
        <mxCell id="dQL6wDx0h7eH1XYwRV4I-48" value="\(n \le N\_MAX\)" style="rhombus;whiteSpace=wrap;html=1;fontFamily=Lucida Console;fontSize=11;fontColor=default;labelBackgroundColor=default;" vertex="1" parent="1">
          <mxGeometry x="-1375" y="180" width="110" height="50" as="geometry" />
        </mxCell>
        <mxCell id="dQL6wDx0h7eH1XYwRV4I-49" style="edgeStyle=orthogonalEdgeStyle;shape=connector;rounded=0;orthogonalLoop=1;jettySize=auto;html=1;exitX=1;exitY=0.5;exitDx=0;exitDy=0;entryX=0.5;entryY=0;entryDx=0;entryDy=0;entryPerimeter=0;strokeColor=default;align=center;verticalAlign=middle;fontFamily=Helvetica;fontSize=11;fontColor=default;labelBackgroundColor=default;endArrow=open;endFill=0;" edge="1" parent="1" source="dQL6wDx0h7eH1XYwRV4I-48" target="dQL6wDx0h7eH1XYwRV4I-43">
          <mxGeometry relative="1" as="geometry" />
        </mxCell>
        <mxCell id="dQL6wDx0h7eH1XYwRV4I-55" value="T" style="text;html=1;align=center;verticalAlign=middle;resizable=0;points=[];autosize=1;strokeColor=none;fillColor=none;fontFamily=Lucida Console;fontSize=13;fontColor=default;labelBackgroundColor=default;" vertex="1" parent="1">
          <mxGeometry x="-1328" y="223" width="30" height="30" as="geometry" />
        </mxCell>
        <mxCell id="dQL6wDx0h7eH1XYwRV4I-58" value="F" style="text;html=1;align=center;verticalAlign=middle;resizable=0;points=[];autosize=1;strokeColor=none;fillColor=none;fontFamily=Lucida Console;fontSize=13;fontColor=default;labelBackgroundColor=default;" vertex="1" parent="1">
          <mxGeometry x="-1275" y="180" width="30" height="30" as="geometry" />
        </mxCell>
      </root>
    </mxGraphModel>
  </diagram>
</mxfile>
